<svg width="520" height="360" viewBox="0 0 520 360" fill="none" xmlns="http://www.w3.org/2000/svg">
  <defs>
    <radialGradient id="plateGlow" cx="0" cy="0" r="1" gradientUnits="userSpaceOnUse" gradientTransform="translate(260 170) rotate(90) scale(150 200)">
      <stop stop-color="#F8FAFC" stop-opacity="0.9"/>
      <stop offset="1" stop-color="#F8FAFC" stop-opacity="0.15"/>
    </radialGradient>
    <linearGradient id="rim" x1="110" y1="80" x2="410" y2="290" gradientUnits="userSpaceOnUse">
      <stop stop-color="#F2E8D5"/>
      <stop offset="1" stop-color="#CFAE86"/>
    </linearGradient>
    <linearGradient id="chicken" x1="0" y1="0" x2="1" y2="1">
      <stop stop-color="#F6B35D"/>
      <stop offset="1" stop-color="#D16A2A"/>
    </linearGradient>
    <linearGradient id="leaf" x1="0" y1="0" x2="1" y2="1">
      <stop stop-color="#B8E07B"/>
      <stop offset="1" stop-color="#4A8E4A"/>
    </linearGradient>
  </defs>

  <ellipse cx="260" cy="180" rx="190" ry="135" fill="#0F3627" fill-opacity="0.35"/>
  <ellipse cx="260" cy="180" rx="170" ry="120" fill="url(#rim)" fill-opacity="0.55"/>
  <ellipse cx="260" cy="180" rx="150" ry="105" fill="url(#plateGlow)"/>

  <path d="M160 130C140 128 126 146 130 166C134 187 160 196 174 188C188 180 192 162 182 146C176 136 168 132 160 130Z" fill="url(#leaf)" fill-opacity="0.95"/>
  <path d="M186 104C172 110 166 128 176 144C186 160 210 162 224 150C238 138 236 118 222 108C210 100 198 100 186 104Z" fill="url(#leaf)" fill-opacity="0.9"/>
  <path d="M284 112C266 116 256 136 264 154C272 172 296 178 312 168C328 158 330 134 316 120C306 110 296 108 284 112Z" fill="url(#leaf)" fill-opacity="0.92"/>
  <path d="M340 152C324 150 312 164 316 180C320 196 344 204 358 196C372 188 376 170 366 158C360 150 350 150 340 152Z" fill="url(#leaf)" fill-opacity="0.9"/>

  <path d="M190 170C168 176 162 204 176 222C190 240 220 240 236 222C252 204 244 176 220 170C208 166 198 166 190 170Z" fill="url(#chicken)"/>
  <path d="M252 150C232 156 224 180 234 200C244 220 270 224 286 208C302 192 300 164 280 154C270 150 262 148 252 150Z" fill="url(#chicken)"/>
  <path d="M306 182C288 190 284 214 298 230C312 246 338 244 352 226C366 208 358 186 336 180C326 176 316 176 306 182Z" fill="url(#chicken)"/>

  <path d="M190 188L238 178" stroke="#B85B2E" stroke-width="6" stroke-linecap="round"/>
  <path d="M186 204L234 192" stroke="#B85B2E" stroke-width="6" stroke-linecap="round"/>
  <path d="M252 170L286 162" stroke="#B85B2E" stroke-width="6" stroke-linecap="round"/>
  <path d="M248 186L284 178" stroke="#B85B2E" stroke-width="6" stroke-linecap="round"/>
  <path d="M308 200L342 190" stroke="#B85B2E" stroke-width="6" stroke-linecap="round"/>

  <circle cx="200" cy="122" r="8" fill="#E26B3A"/>
  <circle cx="320" cy="140" r="7" fill="#E26B3A"/>
  <circle cx="230" cy="238" r="7" fill="#E26B3A"/>
  <circle cx="318" cy="232" r="6" fill="#E26B3A"/>

  <circle cx="226" cy="120" r="4" fill="#F8FAFC" fill-opacity="0.9"/>
  <circle cx="324" cy="140" r="3.5" fill="#F8FAFC" fill-opacity="0.9"/>
  <circle cx="234" cy="238" r="3.5" fill="#F8FAFC" fill-opacity="0.9"/>
  <circle cx="322" cy="232" r="3" fill="#F8FAFC" fill-opacity="0.9"/>
</svg>
